<svg preserveAspectRatio="none" overflow="visible" style="display: block;" width="288.098" height="22.6035" viewBox="0 0 288.098 22.6035" fill="none" xmlns="http://www.w3.org/2000/svg">
<g id="Group">
<path id="Vector" d="M16.5981 14.5605L19.514 15.2955C18.8972 17.6668 17.8037 19.4834 16.2056 20.7315C14.6075 21.9795 12.6729 22.6035 10.3738 22.6035C8.07477 22.6035 6.05608 22.1182 4.5701 21.1613C3.08412 20.2045 1.9486 18.8178 1.16355 17.0012C0.378508 15.1846 9.35852e-07 13.2293 9.35852e-07 11.1492C9.35852e-07 8.875 0.434584 6.89199 1.31776 5.2002C2.20094 3.5084 3.4486 2.21875 5.06075 1.34512C6.68692 0.471486 8.46729 0.0277352 10.4159 0.0277352C12.6308 0.0277352 14.4813 0.582424 15.9813 1.6918C17.4813 2.80117 18.5327 4.36817 19.1355 6.37891L16.2617 7.04453C15.743 5.44981 15 4.29883 14.0327 3.57774C13.0654 2.85664 11.8318 2.4961 10.3598 2.4961C8.66356 2.4961 7.24767 2.89824 6.11215 3.70254C4.97664 4.50684 4.17757 5.58848 3.71496 6.94746C3.25234 8.30645 3.02804 9.70703 3.02804 11.1354C3.02804 12.9936 3.29439 14.616 3.85514 16.0027C4.40187 17.3895 5.25702 18.4295 6.40655 19.109C7.55609 19.7885 8.80375 20.1352 10.1495 20.1352C11.7897 20.1352 13.1776 19.6637 14.2991 18.7346C15.4346 17.8055 16.2056 16.4188 16.5981 14.5744V14.5605Z" fill="white"/>
<path id="Vector_2" d="M31.3879 22.2152V0.374415H34.3037V19.6359H45.1822V22.2152H31.3879Z" fill="white"/>
<path id="Vector_3" d="M54.6308 22.2152L63.1121 0.374415H66.2664L75.3084 22.2152H71.986L69.4065 15.6006H60.1822L57.757 22.2152H54.6589H54.6308ZM60.9953 13.2432H68.4813L66.1822 7.19707C65.4813 5.35274 64.9626 3.85508 64.6121 2.6625C64.3318 4.06309 63.9393 5.44981 63.4206 6.83653L60.9953 13.2432Z" fill="white"/>
<path id="Vector_4" d="M85.0234 15.1984L87.7851 14.9627C87.9112 16.0582 88.2196 16.9457 88.6963 17.6529C89.1729 18.3602 89.9159 18.9148 90.9112 19.3447C91.9206 19.7746 93.0421 19.9965 94.3037 19.9965C95.4112 19.9965 96.4065 19.8301 97.2617 19.5111C98.1168 19.1783 98.7477 18.7346 99.1682 18.166C99.5888 17.5975 99.7991 16.9734 99.7991 16.2939C99.7991 15.6145 99.6028 15.0043 99.1963 14.5051C98.7897 13.992 98.1308 13.5621 97.2056 13.2154C96.6168 12.9797 95.2991 12.633 93.2804 12.1477C91.2477 11.6623 89.8318 11.2186 89.0187 10.7887C87.9673 10.2479 87.1822 9.56836 86.6636 8.7502C86.1449 7.9459 85.8925 7.03067 85.8925 6.03223C85.8925 4.93672 86.2149 3.89668 86.8458 2.93985C87.4766 1.98301 88.4019 1.26192 89.6215 0.762697C90.8411 0.263478 92.1869 0.0138677 93.6729 0.0138677C95.3131 0.0138677 96.757 0.277343 98.0047 0.790429C99.2523 1.31738 100.22 2.08008 100.893 3.09238C101.565 4.10469 101.93 5.25567 101.972 6.53145L99.1682 6.73945C99.014 5.35274 98.5093 4.3127 97.6402 3.60547C96.771 2.89824 95.4953 2.55156 93.7991 2.55156C92.1028 2.55156 90.743 2.87051 89.9299 3.5084C89.1168 4.14629 88.7243 4.92285 88.7243 5.82422C88.7243 6.61465 89.0047 7.25254 89.5794 7.76563C90.1402 8.27871 91.6122 8.7918 93.9813 9.31875C96.3505 9.84571 97.9906 10.3172 98.8738 10.7055C100.164 11.2879 101.103 12.0367 101.72 12.9381C102.336 13.8395 102.645 14.8795 102.645 16.0443C102.645 17.2092 102.308 18.3047 101.636 19.3309C100.963 20.357 99.9953 21.1613 98.7336 21.7299C97.472 22.2984 96.0561 22.5897 94.486 22.5897C92.4813 22.5897 90.8131 22.2984 89.4673 21.7299C88.1215 21.1475 87.0561 20.2877 86.285 19.1367C85.514 17.9857 85.1075 16.6684 85.0794 15.2123L85.0234 15.1984Z" fill="white"/>
<path id="Vector_5" d="M113.972 15.1984L116.734 14.9627C116.86 16.0582 117.168 16.9457 117.645 17.6529C118.121 18.3602 118.864 18.9148 119.86 19.3447C120.855 19.7746 121.991 19.9965 123.252 19.9965C124.36 19.9965 125.355 19.8301 126.21 19.5111C127.065 19.1783 127.696 18.7346 128.117 18.166C128.537 17.5975 128.748 16.9734 128.748 16.2939C128.748 15.6145 128.551 15.0043 128.145 14.5051C127.738 13.992 127.079 13.5621 126.154 13.2154C125.565 12.9797 124.248 12.633 122.229 12.1477C120.196 11.6623 118.78 11.2186 117.967 10.7887C116.916 10.2479 116.131 9.56836 115.612 8.7502C115.093 7.9459 114.841 7.03067 114.841 6.03223C114.841 4.93672 115.164 3.89668 115.794 2.93985C116.425 1.98301 117.35 1.26192 118.57 0.762697C119.79 0.263478 121.136 0.0138677 122.621 0.0138677C124.262 0.0138677 125.706 0.277343 126.953 0.790429C128.201 1.31738 129.168 2.08008 129.841 3.09238C130.514 4.10469 130.878 5.25567 130.921 6.53145L128.117 6.73945C127.963 5.35274 127.458 4.3127 126.589 3.60547C125.72 2.89824 124.444 2.55156 122.734 2.55156C121.023 2.55156 119.678 2.87051 118.879 3.5084C118.065 4.14629 117.673 4.92285 117.673 5.82422C117.673 6.61465 117.953 7.25254 118.528 7.76563C119.089 8.27871 120.561 8.7918 122.93 9.31875C125.299 9.84571 126.939 10.3172 127.822 10.7055C129.112 11.2879 130.051 12.0367 130.668 12.9381C131.285 13.8395 131.593 14.8795 131.593 16.0443C131.593 17.2092 131.257 18.3047 130.584 19.3309C129.911 20.357 128.944 21.1613 127.682 21.7299C126.421 22.2984 125.005 22.5897 123.435 22.5897C121.43 22.5897 119.762 22.2984 118.416 21.7299C117.07 21.1475 116.005 20.2877 115.234 19.1367C114.463 17.9857 114.056 16.6684 114.014 15.2123L113.972 15.1984Z" fill="white"/>
<path id="Vector_6" d="M171.224 13.6453V11.0799H180.575V19.1645C179.131 20.3016 177.659 21.1475 176.131 21.716C174.603 22.2846 173.033 22.5758 171.435 22.5758C169.262 22.5758 167.299 22.1182 165.519 21.2029C163.752 20.2877 162.407 18.9565 161.509 17.2231C160.612 15.4897 160.15 13.5482 160.15 11.3988C160.15 9.24942 160.598 7.29414 161.495 5.44981C162.392 3.60547 163.682 2.23262 165.378 1.34512C167.075 0.457619 169.009 1.54773e-07 171.21 1.54773e-07C172.808 1.54773e-07 174.252 0.249611 175.542 0.762697C176.832 1.27578 177.841 1.98301 178.57 2.89824C179.299 3.81348 179.86 5.00606 180.238 6.47598L177.603 7.19707C177.266 6.0877 176.86 5.21407 176.369 4.57617C175.878 3.93828 175.178 3.4252 174.266 3.05078C173.355 2.6625 172.332 2.48223 171.224 2.48223C169.893 2.48223 168.729 2.69024 167.762 3.07852C166.794 3.48067 166.009 4.00762 165.407 4.65938C164.804 5.31113 164.341 6.03223 164.019 6.82266C163.458 8.16778 163.178 9.6377 163.178 11.2186C163.178 13.16 163.514 14.7963 164.187 16.0998C164.86 17.4033 165.855 18.3879 167.145 19.0258C168.435 19.6637 169.808 19.9826 171.266 19.9826C172.528 19.9826 173.762 19.7469 174.967 19.2615C176.173 18.7762 177.084 18.2631 177.715 17.7223V13.6592H171.224V13.6453Z" fill="white"/>
<path id="Vector_7" d="M207.757 0.374415H210.673V12.9936C210.673 15.1846 210.421 16.9318 209.916 18.2215C209.411 19.5111 208.514 20.565 207.196 21.3693C205.892 22.1736 204.168 22.5897 202.037 22.5897C199.907 22.5897 198.28 22.243 196.963 21.5357C195.645 20.8285 194.706 19.8162 194.145 18.4711C193.584 17.1398 193.304 15.3094 193.304 12.9936V0.374415H196.22V12.9797C196.22 14.8795 196.402 16.2801 196.752 17.1676C197.103 18.0689 197.72 18.7623 198.589 19.2477C199.458 19.733 200.523 19.9826 201.771 19.9826C203.916 19.9826 205.444 19.4973 206.369 18.5404C207.28 17.5836 207.743 15.7254 207.743 12.9797V0.374415H207.757Z" fill="white"/>
<path id="Vector_8" d="M224.425 22.2152V0.374415H227.341V22.2152H224.425Z" fill="white"/>
<path id="Vector_9" d="M240.883 22.2152V0.374415H248.495C250.206 0.374415 251.523 0.485352 252.421 0.69336C253.682 0.984571 254.762 1.49766 255.659 2.26035C256.822 3.23106 257.692 4.4791 258.266 5.99063C258.841 7.50215 259.135 9.23555 259.135 11.177C259.135 12.841 258.939 14.3109 258.547 15.5867C258.154 16.8625 257.65 17.9303 257.047 18.7623C256.43 19.5943 255.757 20.26 255.042 20.7453C254.313 21.2307 253.43 21.5912 252.407 21.8408C251.383 22.0904 250.192 22.2152 248.86 22.2152H240.897H240.883ZM243.813 19.6359H248.523C249.981 19.6359 251.117 19.4973 251.944 19.2338C252.771 18.9703 253.43 18.582 253.921 18.0967C254.607 17.4172 255.154 16.4881 255.547 15.3371C255.939 14.1861 256.121 12.7717 256.121 11.1215C256.121 8.8334 255.743 7.08614 254.986 5.85196C254.229 4.63164 253.304 3.79961 252.224 3.3836C251.439 3.09238 250.178 2.93985 248.439 2.93985H243.799V19.6221L243.813 19.6359Z" fill="white"/>
<path id="Vector_10" d="M271.612 22.2152V0.374415H287.579V2.95371H274.542V9.6377H286.752V12.2031H274.542V19.6359H288.098V22.2152H271.626H271.612Z" fill="white"/>
</g>
</svg>
