<svg preserveAspectRatio="none" overflow="visible" style="display: block;" width="71.7757" height="71" viewBox="0 0 71.7757 71" fill="none" xmlns="http://www.w3.org/2000/svg">
<g id="Group">
<path id="Vector" d="M71.7757 71H64.5981V35.5C64.5981 19.8439 51.7149 7.1 35.8878 7.1C20.0607 7.1 7.17757 19.8439 7.17757 35.5V71H0V35.5C0 15.9195 16.0935 0 35.8878 0C55.6822 0 71.7757 15.9195 71.7757 35.5V71Z" fill="#DCD8CC"/>
<path id="Vector_2" d="M55.6262 71H48.4486V42.6C48.4486 35.7496 42.8131 30.175 35.8878 30.175C28.9626 30.175 23.3271 35.7496 23.3271 42.6V71H16.1495V42.6C16.1495 31.8391 25.0093 23.075 35.8878 23.075C46.7664 23.075 55.6262 31.8391 55.6262 42.6V71Z" fill="#DCD8CC"/>
<path id="Vector_3" d="M31.4019 71V59.4625C31.4019 57.008 33.4065 55.025 35.8878 55.025C38.3692 55.025 40.3738 57.008 40.3738 59.4625V71H31.4019Z" fill="#C3A155"/>
</g>
</svg>
